HIERARCHY
ROOT Pelvis
{
	OFFSET 0.000000 0.000000 0.000000
	CHANNELS 6 Xposition Yposition Zposition Xrotation Yrotation Zrotation
	JOINT LeftUpLeg_virtual
	{
		OFFSET 0.000000 0.000000 0.000000
		CHANNELS 3 Xrotation Yrotation Zrotation
		JOINT LeftUpLeg
		{
			OFFSET 18.735201 -5.666702 -4.541200
			CHANNELS 3 Xrotation Yrotation Zrotation
			JOINT LeftLeg
			{
				OFFSET -0.021200 -31.938179 0.493100
				CHANNELS 3 Xrotation Yrotation Zrotation
				JOINT LeftFoot
				{
					OFFSET 0.021200 -31.938179 -4.336299
					CHANNELS 3 Xrotation Yrotation Zrotation
					JOINT LeftToeBase
					{
						OFFSET 0.943001 -26.722000 15.023500
						CHANNELS 3 Xrotation Yrotation Zrotation
						End Site
						{
							OFFSET 0 0 0
						}
					}
				}
			}
		}
	}
	JOINT RightUpLeg_virtual
	{
		OFFSET 0.000000 0.000000 0.000000
		CHANNELS 3 Xrotation Yrotation Zrotation
		JOINT RightUpLeg
		{
			OFFSET -18.735201 -5.666702 -4.541200
			CHANNELS 3 Xrotation Yrotation Zrotation
			JOINT RightLeg
			{
				OFFSET 0.018946 -31.938133 0.493100
				CHANNELS 3 Xrotation Yrotation Zrotation
				JOINT RightFoot
				{
					OFFSET -0.018946 -31.938126 -4.336299
					CHANNELS 3 Xrotation Yrotation Zrotation
					JOINT RightToeBase
					{
						OFFSET -0.943001 -26.722004 15.023500
						CHANNELS 3 Xrotation Yrotation Zrotation
						End Site
						{
							OFFSET 0 0 0
						}
					}
				}
			}
		}
	}
	JOINT Hips_virtual
	{
		OFFSET 0.000000 0.000000 0.000000
		CHANNELS 3 Xrotation Yrotation Zrotation
		JOINT Hips
		{
			OFFSET -0.000000 -0.000000 -0.000000
			CHANNELS 3 Xrotation Yrotation Zrotation
			JOINT Spine
			{
				OFFSET 0.000000 10.199997 -0.299500
				CHANNELS 3 Xrotation Yrotation Zrotation
				JOINT Spine1
				{
					OFFSET 0.000000 11.900002 -1.516600
					CHANNELS 3 Xrotation Yrotation Zrotation
					JOINT Spine2
					{
						OFFSET 0.000000 13.600006 -2.842500
						CHANNELS 3 Xrotation Yrotation Zrotation
						JOINT Neck_virtual
						{
							OFFSET 0.000000 0.000000 0.000000
							CHANNELS 3 Xrotation Yrotation Zrotation
							JOINT Neck
							{
								OFFSET 0.000000 9.624100 -2.890100
								CHANNELS 3 Xrotation Yrotation Zrotation
								JOINT Head
								{
									OFFSET 0.000000 14.068802 -1.351900
									CHANNELS 3 Xrotation Yrotation Zrotation
									End Site
									{
										OFFSET 0 0 0
									}
								}
							}
						}
						JOINT LeftShoulder_virtual
						{
							OFFSET 0.000000 0.000000 0.000000
							CHANNELS 3 Xrotation Yrotation Zrotation
							JOINT LeftShoulder
							{
								OFFSET 15.263000 10.923401 -0.547700
								CHANNELS 3 Xrotation Yrotation Zrotation
								JOINT LeftArm
								{
									OFFSET 25.438599 -2.830597 -13.032500
									CHANNELS 3 Xrotation Yrotation Zrotation
									JOINT LeftForeArm
									{
										OFFSET 29.960503 0.000000 0.000000
										CHANNELS 3 Xrotation Yrotation Zrotation
										JOINT LeftHand
										{
											OFFSET 27.849251 0.000000 0.000000
											CHANNELS 3 Xrotation Yrotation Zrotation
											End Site
											{
												OFFSET 0 0 0
											}
										}
									}
								}
							}
						}
						JOINT RightShoulder_virtual
						{
							OFFSET 0.000000 0.000000 0.000000
							CHANNELS 3 Xrotation Yrotation Zrotation
							JOINT RightShoulder
							{
								OFFSET -15.263000 10.923401 -0.547700
								CHANNELS 3 Xrotation Yrotation Zrotation
								JOINT RightArm
								{
									OFFSET -25.438599 -2.830597 -13.032500
									CHANNELS 3 Xrotation Yrotation Zrotation
									JOINT RightForeArm
									{
										OFFSET -29.960503 0.000000 0.000000
										CHANNELS 3 Xrotation Yrotation Zrotation
										JOINT RightHand
										{
											OFFSET -27.849251 0.000000 0.000000
											CHANNELS 3 Xrotation Yrotation Zrotation
											End Site
											{
												OFFSET 0 0 0
											}
										}
									}
								}
							}
						}
					}
				}
			}
		}
	}
}
MOTION
Frames: 5
Frame Time: 0.03333333
-2.643779 84.078995 0.251541 0.000000 0.000000 0.000000 2.473539 -47.481279 4.795275 -43.288537 -3.485213 18.510159 39.510985 -5.751635 -5.956158 -11.370985 -2.388068 -17.807545 0.000000 0.000000 0.000000 5.328947 -45.611826 -2.387348 -28.284430 -16.051122 -24.311753 44.870709 6.583565 -1.253912 -10.720306 3.186462 14.490629 0.000000 0.000000 0.000000 2.682899 -29.957312 2.232087 9.172088 -34.856146 8.538027 10.005704 -0.126555 -5.771775 5.580830 1.142061 -4.668451 0.000000 0.000000 0.000000 0.661441 4.698314 -1.702541 -1.967667 3.772476 -0.214568 0.000000 0.000000 0.000000 0.471916 0.056111 -3.601290 -2.624976 -8.376769 -11.992961 -15.127021 -2.725742 -40.057249 -1.923283 -35.346605 -1.254830 0.000000 0.000000 0.000000 2.479262 1.450678 -3.408770 0.935910 3.439467 -6.540752 -34.431786 -6.243068 40.606796 -44.905605 75.008495 40.305452 0.000000 0.000000 0.000000 
-4.403889 83.738266 0.970541 0.000000 0.000000 0.000000 4.152059 -47.174597 6.014987 -41.319547 -3.514737 18.952576 38.669065 -5.807043 -6.436095 -11.547501 -2.194799 -18.766075 0.000000 0.000000 0.000000 4.908839 -47.428205 -2.691536 -28.962027 -16.346374 -24.710750 46.348707 6.960453 -1.563840 -9.613893 3.867805 14.323012 0.000000 0.000000 0.000000 -0.014064 -29.452032 0.504924 11.052441 -32.302703 10.039925 8.608462 -0.531785 -7.389337 5.198635 1.150823 -5.460688 0.000000 0.000000 0.000000 0.419720 4.350468 -3.364029 -2.179805 4.024388 -0.689733 0.000000 0.000000 0.000000 0.095336 -0.072132 -4.098681 -2.291985 -6.919694 -10.999652 -15.558157 -0.700977 -38.030425 -0.939994 -33.521551 0.074222 0.000000 0.000000 0.000000 1.814881 1.502037 -4.248360 1.073390 1.933053 -8.323423 -31.659843 -8.715305 39.597950 -66.656349 77.284820 63.192514 0.000000 0.000000 0.000000 
-3.440726 83.967735 3.876945 0.000000 0.000000 0.000000 4.512335 -46.005702 6.800786 -40.918475 -3.487218 19.662670 38.529258 -6.036723 -6.937026 -11.548632 -2.117007 -19.783414 0.000000 0.000000 0.000000 5.159146 -46.678305 -2.235617 -28.677932 -16.237964 -24.156378 49.050577 7.335933 -2.033961 -7.668550 4.740035 14.059237 0.000000 0.000000 0.000000 1.724522 -28.002249 3.468618 3.721095 -30.730729 12.280878 8.137732 -1.196766 -8.140801 4.383352 0.905661 -5.735694 0.000000 0.000000 0.000000 0.912171 4.070469 -4.754350 -2.483923 4.269146 -1.422586 0.000000 0.000000 0.000000 -0.585346 0.058402 -4.752843 -3.641893 -7.084742 -13.316156 -13.846465 1.757603 -39.596266 -0.264927 -29.151039 -0.225358 0.000000 0.000000 0.000000 1.191623 1.627127 -4.707076 0.929966 0.672258 -9.637948 -27.216262 -6.420125 41.691608 -94.927718 78.263873 91.778345 0.000000 0.000000 0.000000 
-5.251292 85.093338 3.465652 0.000000 0.000000 0.000000 4.027157 -44.237472 6.331818 -41.089875 -2.993274 19.615127 38.402295 -5.783312 -7.024530 -11.651099 -1.778944 -19.804991 0.000000 0.000000 0.000000 5.600910 -44.614154 -2.419372 -28.316899 -15.561440 -24.265048 52.051724 8.100294 -2.020466 -5.789211 5.633553 14.922240 0.000000 0.000000 0.000000 -0.319749 -27.017028 2.480364 5.266132 -30.351571 11.826379 6.789483 -1.383276 -9.057835 4.978822 1.067026 -7.068388 0.000000 0.000000 0.000000 1.258460 3.426382 -6.348125 -2.374339 4.167878 -2.156224 0.000000 0.000000 0.000000 -0.870074 -0.327065 -5.619353 -4.918286 -7.834393 -13.773940 -17.851910 0.335265 -36.947874 -1.600122 -31.317920 0.362805 0.000000 0.000000 0.000000 0.284276 1.671550 -5.332706 -0.993998 -1.099194 -10.544816 -28.179916 -10.897187 41.088407 -109.519870 75.783175 106.741104 0.000000 0.000000 0.000000 
-6.925051 84.487839 3.258619 0.000000 0.000000 0.000000 4.176611 -43.013881 7.252532 -40.698290 -3.144769 20.457204 37.358795 -5.775114 -7.237134 -12.399860 -1.602750 -20.100106 0.000000 0.000000 0.000000 4.954232 -43.971224 -3.564620 -28.719719 -15.049861 -25.028453 55.030390 9.245530 -1.916792 -4.008042 6.831824 16.265313 0.000000 0.000000 0.000000 1.283261 -25.811915 2.675497 3.117942 -29.721599 11.567538 7.611518 -2.007087 -10.207892 5.086597 0.395405 -7.395888 0.000000 0.000000 0.000000 2.686268 2.529105 -8.100758 -2.334070 4.167636 -2.811587 0.000000 0.000000 0.000000 -1.362848 -1.011861 -6.355321 -5.801196 -7.326874 -13.941236 -18.673464 0.127543 -33.481751 -1.990874 -30.813097 0.920294 0.000000 0.000000 0.000000 -0.499903 1.116600 -5.792986 -1.471744 -2.857000 -13.184269 -24.731487 -14.021989 37.183980 -120.379653 73.848087 117.775629 0.000000 0.000000 0.000000 
